<svg width="512" height="512" xmlns="http://www.w3.org/2000/svg">

 <g>
  <title>background</title>
  <rect fill="none" id="canvas_background" height="402" width="582" y="-1" x="-1"/>
 </g>
 <g>
  <title>Layer 1</title>
  <path id="svg_2" fill-rule="evenodd" clip-rule="evenodd" fill="#000000" d="m256,21.910999c-5.608994,0 -11.169006,0.217001 -16.679993,0.623001l-44.110001,124.699993l38.636993,0c27.837997,0 39.175003,22.085007 30.780014,47.146011l-56.864014,160.526978l-56.843002,0l62.581009,-176.648987l-29.297012,0l-62.563995,176.649017l-57.362,0l112.839996,-318.739994c-88.008995,32.955982 -151.083996,119.368977 -151.083996,220.332981c0,109.033997 73.565998,201.102997 172.654003,227.192993l119.371017,-337.368011l93.347992,0c19.286987,0 42.984009,12.977997 32.997986,43.184006c-10.019989,30.222 -46.09198,130.770004 -52.747986,149.93898c-6.665009,19.173004 -22.674011,23.024017 -35.347992,23.024017l-57.374023,0l-45.50499,128.582001l2.570999,0.033997c126.658997,0 229.96698,-105.383026 229.96698,-234.58902c-0.000977,-129.207962 -103.30899,-234.587963 -229.967987,-234.587963zm140.592987,155.842999c0.171997,-0.645996 0.171997,-1.203995 0,-1.677002c-0.441986,-0.878998 -1.425995,-1.382996 -2.665985,-1.514999l-28.170013,0c-2.204987,0.145004 -3.707001,0.917999 -4.604004,2.236008l-9.708984,27.437988l-46.286011,130.830994l35.763,0l10.52301,-29.742004l45.148987,-127.570984z"/>
 </g>
</svg>