<svg width="512" height="512" xmlns="http://www.w3.org/2000/svg">

 <g>
  <title>background</title>
  <rect fill="none" id="canvas_background" height="402" width="582" y="-1" x="-1"/>
 </g>
 <g>
  <title>Layer 1</title>
  <path id="svg_2" fill-rule="evenodd" clip-rule="evenodd" fill="#000000" d="m138.302994,275.694l0.099991,-0.246002c0,0 -0.14299,0.083008 -0.416992,0.230988l0.317001,0.015015zm-38.228996,7.944c0,0 -4.588997,-0.772003 -4.588997,-4.946014l0.266998,-1.478973l6.439003,-1.519012l45.919991,-10.820007c0,0 11.178009,-24.37999 -31.474991,-23.793991c-42.648003,0.587006 -48.232002,27.608994 -48.823013,33.193985c-0.042999,0.423004 -0.071999,0.901001 -0.075996,1.416016l0.667,1.449005c-0.034004,6.233002 3.213997,16.832001 31.757996,17.104004c0,0 25.289001,-0.870026 32.650009,-4.986023l5.491989,-13.562988l-0.317001,0c-3.052979,1.648987 -22.311981,11.649994 -37.912987,7.944zm-0.406998,-23.148987c0,0 1.862,-11.162003 14.448997,-11.34201c12.592003,-0.181 9.866005,10.574005 9.866005,10.574005l-27.587006,13.886017l3.272003,-13.118011zm-52.451,-41.733017l-21.177999,73.727005l29.716002,0c7.056999,-24.575012 14.118,-49.150009 21.175999,-73.727005l-29.714001,0zm333.626011,24.21701l-22.704987,32.722l-1.196014,1.725006l-0.209991,-1.725006l-4.016998,-32.722l-27.544006,0l3.96701,32.722l2.03598,16.787994l44.582001,0l11.450012,-16.787994l22.313995,-32.722l-28.677002,0zm-97.662018,-1.632004c-43.811996,1.632004 -46.764999,28.411011 -46.764999,28.411011s-1.031006,2.528992 -1.013,5.941986c0.050995,7.562988 5.209,19.459015 37.732986,18.335999c26,-0.898987 38.31601,-10.171997 44.134003,-18.343994c4.77002,-6.692017 5.177002,-12.653015 5.177002,-12.653015s4.54303,-23.324997 -39.265991,-21.691986zm8.406006,21.691986c0,0 -0.515991,6.729004 -3.621002,12.661011c-2.493011,4.765991 -6.653992,9.007996 -13.557007,8.852997c0,0 -7.838989,0.612 -7.846985,-8.834015c0,-1.742981 0.266998,-3.830994 0.895996,-6.322998l2.950989,-8.718994c0,0 2.362,-10.389999 12.770996,-10.210007c10.40802,0.184021 9.134003,8.215012 8.407013,12.572006zm-65.578003,-18.785995c0,0 -13.862,-3.813004 -33.040009,-2.727997c-19.177002,1.088989 -32.856995,3.632996 -32.856995,3.632996l-9.062988,30.542007l-4.980011,16.787994l30.49501,0l5.050003,-16.787994l7.536987,-25.050003c0,0 18.045013,-2.588013 15.682999,6.718002l-5.337997,18.332001l-4.889999,16.787994l29.947006,0l5.013992,-16.787994l5.577011,-18.694c0,0 3.636002,-10.212997 -9.13501,-12.753006zm220.639008,-2.905991c-43.809998,1.632004 -46.766998,28.411011 -46.766998,28.411011s-1.028992,2.528992 -1.007996,5.941986c0.043976,7.562988 5.203979,19.459015 37.729004,18.335999c26.002991,-0.898987 38.31601,-10.171997 44.135986,-18.343994c4.769012,-6.692017 5.175018,-12.653015 5.175018,-12.653015s4.544983,-23.324997 -39.265015,-21.691986zm8.406982,21.691986c0,0 -0.514008,6.729004 -3.622986,12.661011c-2.493011,4.765991 -6.653015,9.007996 -13.553009,8.852997c0,0 -7.841003,0.612 -7.848999,-8.834015c0,-1.742981 0.269012,-3.830994 0.89801,-6.322998l2.949982,-8.718994c0,0 2.362,-10.389999 12.77002,-10.210007c10.40799,0.184021 9.139008,8.215012 8.406982,12.572006z"/>
 </g>
</svg>